PathFileType	4	(X/Y/Z)	D:\Share\Shared_Data\Ergonomics\Sit To Stand Pertubation\S0\Perturbed STS.trc
DataRate	CameraRate	NumFrames	NumMarkers	Units	OrigDataRate	OrigDataStartFrame	OrigNumFrames	
100	100	8	18	m	100	12936	241
Frame#	Time	R_Heel			R_ASIS			R_Pelvis			V_Sacral			L_Pelvis			L_ASIS			Clavical			R_Acromium			L_Acromium			Sternum			Torso			R_Thigh_Med			R_Thigh_Lat			R_Thigh			R_Shank_Med			R_Shank_Lat			R_Shank			R_Toe			
		X1	Y1	Z1	X2	Y2	Z2	X3	Y3	Z3	X4	Y4	Z4	X5	Y5	Z5	X6	Y6	Z6	X7	Y7	Z7	X8	Y8	Z8	X9	Y9	Z9	X10	Y10	Z10	X11	Y11	Z11	X12	Y12	Z12	X13	Y13	Z13	X14	Y14	Z14	X15	Y15	Z15	X16	Y16	Z16	X17	Y17	Z17	X18	Y18	Z18	

12936	85.7	0.17413986	0.041786106	0.11345211	0.091074638	0.75663202	0.13126608	-0.029118776	0.79526135	0.17215341	-0.15808257	0.80498187	-0.056858723	-0.008378396	0.76952692	-0.23362538	0.10497018	0.72589136	-0.18388713	0.36082468	0.9898299	-0.028186857	0.33967447	1.0976273	0.097188461	0.33194159	1.1021792	-0.17310963	0.32881213	0.90038171	-0.049119278	0.33573822	0.95604742	-0.14624797	0.34164801	0.48314517	0.040759438	0.33270258	0.50335275	0.17488293	0.27746964	0.64545251	0.088495659	0.27629498	0.098634583	0.069608307	0.21828241	0.085575111	0.15917645	0.28535916	0.30567551	0.18246542	0.40128424	0.048526302	0.11170686
12937	85.71	0.17422136	0.041837433	0.11339337	0.094912445	0.75812305	0.13104004	-0.02509042	0.79738037	0.17204445	-0.15437404	0.80755743	-0.056894802	-0.0046878595	0.77145123	-0.23370673	0.10853613	0.72745239	-0.18383571	0.36527777	0.99121381	-0.028139511	0.34432605	1.0992002	0.096950638	0.33710352	1.1038541	-0.17287242	0.33344705	0.90181824	-0.049041817	0.34041708	0.95775415	-0.1459521	0.34375723	0.48264539	0.040142384	0.33521747	0.50285471	0.17431483	0.28089655	0.64533813	0.088239899	0.27648618	0.098446121	0.069388229	0.21849718	0.085634071	0.15905211	0.28663278	0.30550534	0.18209683	0.40142871	0.048445564	0.11160051
12938	85.72	0.17430579	0.041895382	0.11335979	0.098707031	0.75972369	0.1308772	-0.02114426	0.79948773	0.1720166	-0.15071239	0.81013275	-0.056871632	-0.0010920169	0.77345526	-0.23376518	0.1120586	0.72915942	-0.18381589	0.36943292	0.99294287	-0.028157618	0.34866943	1.1010946	0.096697609	0.34191959	1.1058438	-0.17271315	0.33783682	0.9035799	-0.049005531	0.34478506	0.95975909	-0.14575673	0.34590338	0.48214795	0.039588356	0.33771906	0.50234048	0.17380573	0.28435812	0.64523523	0.08811496	0.27667142	0.098271919	0.069199715	0.21870401	0.085696091	0.15896664	0.28791464	0.30532526	0.18177792	0.40157227	0.048371056	0.11150547
12939	85.73	0.17438972	0.041957355	0.11334968	0.1024728	0.76144653	0.13075871	-0.017260592	0.80163165	0.17205937	-0.14708102	0.81275378	-0.0567952	0.0024215963	0.77555347	-0.23380142	0.1155377	0.73098834	-0.18380527	0.3733082	0.99500464	-0.028231802	0.35272583	1.1033005	0.096435356	0.34639948	1.1081383	-0.1726192	0.3419794	0.90565619	-0.049006416	0.34885211	0.9620509	-0.14565573	0.34806189	0.4816485	0.03907996	0.3401857	0.50181799	0.17333482	0.28783981	0.64514526	0.088080223	0.27684546	0.098110291	0.069038376	0.21890309	0.085763054	0.15891444	0.28920154	0.30513712	0.1814964	0.40171399	0.048301743	0.11141424
12940	85.74	0.17447011	0.042020523	0.11335951	0.10621906	0.76329193	0.13066426	-0.013421143	0.803854	0.17215802	-0.14346936	0.81546039	-0.056672478	0.0058642063	0.77775598	-0.23381615	0.11896938	0.73291882	-0.18378552	0.3769267	0.99738354	-0.028352058	0.35651749	1.105804	0.096168785	0.35055743	1.1107252	-0.1725779	0.34587555	0.90803302	-0.049041824	0.35263474	0.96461603	-0.14563896	0.35019882	0.48114322	0.038597504	0.34259332	0.50129605	0.17287805	0.29132336	0.64507184	0.088089493	0.27700351	0.097959137	0.068897354	0.21909586	0.085832924	0.15888544	0.2904848	0.30494376	0.18123723	0.40185141	0.048236717	0.11131841
12941	85.75	0.17454401	0.04208205	0.11338445	0.10994768	0.76524902	0.13057486	-0.0096119423	0.80618567	0.1722963	-0.13987376	0.81828333	-0.056509869	0.009243742	0.78007074	-0.23380884	0.12234572	0.73493463	-0.18374376	0.38031723	1.0000624	-0.028507919	0.3600683	1.1085874	0.095901772	0.35441171	1.1135876	-0.17257843	0.34953293	0.91069421	-0.049110485	0.35615424	0.96743884	-0.14569391	0.35227448	0.48063263	0.038121273	0.34491656	0.50078476	0.17241141	0.29478662	0.64502313	0.088096458	0.27714182	0.097816467	0.068768646	0.21928256	0.085901962	0.15886818	0.29174976	0.3047496	0.18098505	0.40198105	0.048175701	0.11121041
12942	85.76	0.17460841	0.042139389	0.11341911	0.11365356	0.7673017	0.13047292	-0.0058252525	0.80864435	0.172459	-0.13629671	0.82124371	-0.056312252	0.012563602	0.78250476	-0.23377798	0.12565611	0.73702563	-0.18367215	0.38351166	1.0030228	-0.028690264	0.36340347	1.1116307	0.09563736	0.35798328	1.1167056	-0.1726131	0.3529704	0.91362433	-0.049211906	0.35943881	0.97050208	-0.14580638	0.35424667	0.48012219	0.037633957	0.34713126	0.50029517	0.17191452	0.2982034	0.64500958	0.088060089	0.27725781	0.097680893	0.068644585	0.21946129	0.085967392	0.15885262	0.29297598	0.30456107	0.18072672	0.40209912	0.048118942	0.11108476
12943	85.77	0.17466055	0.042190659	0.11345836	0.11732635	0.76943604	0.13034207	-0.0020604827	0.81123523	0.17263414	-0.13274544	0.82435254	-0.05608252	0.015822569	0.78506488	-0.23372173	0.12888876	0.73918945	-0.1835674	0.38654041	1.006245	-0.028892311	0.3665477	1.1149124	0.095377922	0.36129395	1.120056	-0.17267761	0.35621729	0.91680804	-0.049345333	0.36252625	0.97378766	-0.14596089	0.35607541	0.47962222	0.037122066	0.34921671	0.4998382	0.17137434	0.30154337	0.64504144	0.087949348	0.27735037	0.097551933	0.068518402	0.21962891	0.086028145	0.15883142	0.29413971	0.30438626	0.18045338	0.40220209	0.048066723	0.11093841
